<?xml version="1.0" encoding="utf-8"?>
<!-- Generator: Adobe Illustrator 25.2.3, SVG Export Plug-In . SVG Version: 6.00 Build 0)  -->
<svg version="1.1" id="Layer_1" xmlns="http://www.w3.org/2000/svg" xmlns:xlink="http://www.w3.org/1999/xlink" x="0px" y="0px"
	 viewBox="0 0 35 35" style="enable-background:new 0 0 35 35;" xml:space="preserve">
<style type="text/css">
	.st0{fill:#78D1EC;}
</style>
<path class="st0" d="M3.9,24.8c-0.1-0.1-1.1-0.9-1.5-1.3c-0.3-0.3-0.2-0.4,0.2-0.7c1-0.8,2.9-0.7,3.2-0.8C6,22,6.1,22.2,6.2,22.3
	c0.1,0.2,0,0.3-0.1,0.4c-0.1,0.1-0.3,0.2-0.4,0.2c-0.3,0.1-0.5,0.5-0.3,0.6c3.3,2.8,18.7,2.9,21,2.7c1.1-0.1,4.9-0.5,5.6-0.5
	c0.2,0,0.5,0,0.5,0.3c0,0.2-1.6,0.5-1.8,0.5c-3.5,1-9.2,1-9.9,1.1c-0.9,0-3-0.1-3.2,0c-0.1,0.1-0.1,0.3,0,0.4
	c0.7,0.7,4.3,1.4,4.3,1.7c0,0.2-1.2,0.2-1.3,0.1C19.7,29.5,8,28.7,3.9,24.8z"/>
<path class="st0" d="M24.6,5.8c0.1-0.3-0.2-0.7-0.5-0.6c-1.2,0.4-3.4,1.1-4.7,1.9c-2,1.2-6.1,4.4-6.4,6.3c-0.5,3.7-2.3,6.6-4.4,9.2
	c-0.7,0.9,6.1,1,7.2,1.2c1,0.2,7.9,0.3,9.9-0.3c1.2-0.4,5.5-0.4,7-0.5c0.2,0,0.2-0.1,0.1-0.2c-2-1.5-8-3.7-9.4-9.4
	c-0.2-0.7-1.5-1.7-2.5-2c-0.2,0-0.1-0.6-0.1-0.6s2.7-1.4,3-2.3C24,7.5,24.3,6.4,24.6,5.8z"/>
<path class="st0" d="M30.7,26.4"/>
<path class="st0" d="M30.7,26.4"/>
</svg>
